<?xml version="1.0" encoding="utf-8"?>
<!-- Generator: Adobe Illustrator 21.1.0, SVG Export Plug-In . SVG Version: 6.00 Build 0)  -->
<svg version="1.1" id="Layer_1" xmlns="http://www.w3.org/2000/svg" xmlns:xlink="http://www.w3.org/1999/xlink" x="0px" y="0px"
	 viewBox="0 0 382.3 146.1" style="enable-background:new 0 0 382.3 146.1;" xml:space="preserve">
<style type="text/css">
	.st0{fill:#0086BC;}
	.st1{fill:#E07A3F;}
	.st2{fill:#4C3322;}
</style>
<g id="XMLID_20_">
	<g id="XMLID_3_">
		<path id="XMLID_126_" class="st0" d="M352.2,118.7c0,0,0,4.7,0,5.3c-0.6,0-3.4,0-3.4,0v2.8c0,0,2.8,0,3.4,0c0,0.6,0,9.6,0,9.6
			c0,1.3,0,4.7,5.5,4.7l4.5-0.4v-0.2v-2.6h-0.6l-3.2,0.4c-2.3,0-3-0.9-3-2.3c0,0,0-8.7,0-9.4c0.6,0,6.4,0,6.4,0v-2.8
			c0,0-5.7,0-6.4,0c0-0.6,0-5.3,0-5.3h-3.2L352.2,118.7L352.2,118.7z"/>
		<path id="XMLID_110_" class="st0" d="M378.7,124c0,0-5.7,11.5-6.4,12.5c-0.6-1.1-6.6-12.5-6.6-12.5h-3.4l8.5,15.7
			c-1.5,2.8-2.8,3.4-4.2,3.4c-0.9,0-1.9-0.2-2.8-0.4l-0.4-0.2v3l3.4,0.6c2.6,0,4.7-1.3,6-3.8l9.6-18.5h-3.6L378.7,124L378.7,124z"/>
		<path id="XMLID_123_" class="st0" d="M177.9,126.4c-0.6-1.3-1.7-2.8-5.1-2.8c-2.5,0-4.5,1.1-6,2.3c0-0.6,0-1.9,0-1.9h-3v16.6h3.2
			v-11.9c1.3-1.1,3-2.6,5.5-2.6c2.8,0,3.2,1.7,3.2,3.4v10.8h3.2v-11.9c1.3-1.1,3-2.5,5.5-2.5c2.8,0,3.2,1.7,3.2,3.4v10.8h3.2v-11.9
			c0-4.7-4.2-5.3-6.2-5.3C181.9,123.6,180.2,124.5,177.9,126.4L177.9,126.4z"/>
		<path id="XMLID_121_" class="st0" d="M263.8,128.7c0,3.8,4.2,4.5,7.9,4.9c3,0.4,5.3,0.6,5.3,2.3s-2.6,2.3-4.7,2.3
			c-3,0-5.3-1.1-7-3.2l-0.2-0.2l-2.3,2.1l0.2,0.2c2.3,2.5,5.1,3.8,9.1,3.8c5.1,0,8.1-1.9,8.1-5.3c0-4-4.5-4.7-8.1-5.1
			c-2.8-0.4-5.1-0.6-5.1-2.1c0-1.9,2.6-2.3,4.2-2.3c2.8,0,4.9,0.9,6.2,2.8l0.2,0.2l2.1-1.9l-0.2-0.2c-0.6-0.9-2.5-3.6-8.3-3.6
			C267.6,123.6,263.8,124.9,263.8,128.7L263.8,128.7z"/>
		<path id="XMLID_119_" class="st0" d="M302,132.3c0,5.1,4,8.7,9.6,8.7c4.2,0,7-1.5,8.9-4.7l0.2-0.2l-2.8-1.5l-0.2,0.2
			c-1.5,2.3-3.2,3.4-6.2,3.4c-3.8,0-6.6-2.6-6.6-5.7c0-4.7,3.4-6.2,6.4-6.2c3.8,0,5.3,2.3,6,3.4l0.2,0.2l2.8-1.5l-0.2-0.2
			c-1.7-3-4.7-4.5-8.5-4.5C306.7,123.6,302,126.4,302,132.3L302,132.3z"/>
		<path id="XMLID_117_" class="st0" d="M123.3,117.9v22.7h3.2v-11.5c1.1-0.9,3.2-2.8,6.2-2.8c1.5,0,2.6,0.4,3.2,1.1
			c0.6,0.6,1.1,1.7,0.9,3v10.4h3.2V130c0-5.3-4.2-6.2-6.8-6.2c-2.3,0-4.2,0.9-6.4,2.5c0-1.1,0-8.3,0-8.3L123.3,117.9L123.3,117.9
			L123.3,117.9z"/>
		<path id="XMLID_115_" class="st0" d="M156.7,124v11.5c-1.1,0.9-3.2,2.8-6,2.8c-1.5,0-2.5-0.4-3.2-1.1c-0.6-0.6-1.1-1.7-0.9-3
			v-10.4h-3.2v10.8c0,5.5,4.2,6.2,6.8,6.2c2.3,0,4.2-0.9,6.4-2.5c0,0.6,0,2.1,0,2.1h3.2v-16.6h-3.2L156.7,124L156.7,124z"/>
		<path id="XMLID_77_" class="st0" d="M210.6,140.2l-0.2-2.3v-8.7c0-3.4-3-5.5-8.1-5.5c-5.5,0-7.4,2.3-8.3,3.4l-0.2,0.2l0.2,0.2
			l2.1,1.5l0.2-0.2c0.9-0.9,2.1-2.6,6.2-2.6c2.3,0,4.7,0.6,4.7,2.8v0.2c-0.4,0-1.7,0.2-1.7,0.2c-6,0.6-12.8,1.3-12.8,6.6
			c0,4.5,4.2,5.1,6.8,5.1c2.8,0,5.3-0.9,7.6-2.3c0,0.6,0.2,1.7,0.2,1.7h0.2h2.8L210.6,140.2z M207.2,136.2c-1.5,0.9-4.5,2.3-7.9,2.3
			c-0.9,0-3.6-0.2-3.6-2.5c0-2.8,4.5-3.4,11.5-4C207.2,132.5,207.2,135.7,207.2,136.2z"/>
		<path id="XMLID_109_" class="st0" d="M217.6,126.2c0-0.6,0-2.1,0-2.1h-3.2v16.6h3.2v-11.5c1.1-0.9,3.2-2.8,6-2.8
			c1.5,0,2.5,0.4,3.2,1.1c0.7,0.7,1.1,1.7,0.9,3v10.4h3.2V130c0-5.3-4.2-6.2-6.8-6.2C221.7,123.6,219.6,124.5,217.6,126.2
			L217.6,126.2z"/>
		<path id="XMLID_76_" class="st0" d="M252.3,132.5c0-2.5-0.9-4.7-2.3-6.4c-1.7-1.7-4.2-2.8-7.4-2.8c-5.3,0-9.1,3.6-9.1,8.7
			s3.8,8.9,9.4,8.9c5.3,0,7-1.9,8.5-3.6l0.6-0.6l-2.5-1.7l-0.2,0.4c-1.1,1.3-2.3,3-6.2,3c-4,0-6-2.5-6.4-5.1c0.9,0,15.5,0,15.5,0
			S252.3,132.8,252.3,132.5z M236.8,130.4c0.9-2.5,2.8-4,6-4c3.6,0,5.5,2.1,6,4C247.8,130.4,237.6,130.4,236.8,130.4z"/>
		<path id="XMLID_70_" class="st0" d="M291.2,123.6c-5.5,0-9.6,3.6-9.6,8.5c0,5.5,3.6,9.1,9.6,9.1s9.6-3.4,9.6-9.1
			C300.7,127.2,296.7,123.6,291.2,123.6z M291.2,138.5c-4,0-6.4-2.3-6.4-6c0-2.3,1.3-5.9,6.4-5.9c4.5,0,6.4,3,6.4,5.9
			C297.5,136.2,295.2,138.5,291.2,138.5z"/>
		<path id="XMLID_98_" class="st0" d="M323.5,124v16.6h3.2V124H323.5L323.5,124z"/>
		<path id="XMLID_26_" class="st0" d="M347.9,132.5c0-2.5-0.9-4.7-2.3-6.4c-1.7-1.7-4.2-2.8-7.4-2.8c-5.3,0-8.9,3.6-8.9,8.7
			s3.8,8.9,9.4,8.9c5.3,0,7-1.9,8.5-3.6l0.6-0.6l-2.5-1.7l-0.2,0.4c-1.1,1.3-2.3,2.8-6.2,2.8c-4,0-6-2.6-6.4-5.1
			c0.9,0,15.5,0,15.5,0S347.9,132.8,347.9,132.5z M332.4,130.4c0.9-2.8,2.8-4,6-4c3.6,0,5.5,2.1,6,4
			C343.4,130.4,333.2,130.4,332.4,130.4z"/>
		<path id="XMLID_17_" class="st0" d="M106.3,123.6v3.2v7.6c0,1.3,0.4,2.5,2.6,2.5c0.6,0,2.3-0.2,3.2-0.4v3.4
			c-1.9,0.2-2.8,0.4-4,0.4c-3.6,0-5.5-1.3-5.5-4.9V127v-3.4v-5.5h3.8L106.3,123.6"/>
		<path id="XMLID_90_" class="st0" d="M14.9,132.1c-2.1,0-4,0.4-5.9,0.9c-2.3,0.6-3.4,1.3-3.4,2.8s0.8,2.3,2.8,2.3
			c2.8,0,5.1-1.3,6.6-2.1v-3.9H14.9z M18.7,137.6c0,1.1,0,2.1,0.2,2.5h-3.8c-0.2-0.6-0.2-1.1-0.2-1.7c-1.5,0.9-3.8,2.1-7.2,2.1
			c-2.1,0-6.4-0.9-6.4-4.9c0-5.5,8.3-6.4,13.4-6.6v-0.6c0-1.3-1.1-2.1-4.2-2.1c-3.4,0-4.2,1.3-4.5,2.1H2.2c0.8-4.5,5.3-5.1,8.3-5.1
			c7.9,0,8.1,3.8,8.1,6.2v8.1L18.7,137.6L18.7,137.6z"/>
		<path id="XMLID_14_" class="st0" d="M22.8,124h3.6v2.1c1.3-1.1,2.8-2.5,6.2-2.5s6.4,1.5,6.4,6.4v10.4h-3.8v-9.1
			c0-3.2-1.1-4.7-3.4-4.7c-3,0-4.2,1.3-5.1,2.3v11.3h-3.8V124H22.8z"/>
		<polygon id="XMLID_13_" class="st0" points="43.4,124 47.2,124 47.2,140.4 43.4,140.4 		"/>
		<path id="XMLID_12_" class="st0" d="M51.5,124h3.6v1.9c1.1-0.9,2.3-2.3,5.5-2.3c3.4,0,4.5,1.5,5.3,2.5c0.9-1.1,2.6-2.5,5.7-2.5
			c3.6,0,6.2,1.5,6.2,5.3v11.5H74v-10c0-2.8-1.1-3.8-3.2-3.8c-1.9,0-3.4,1.3-4.2,2.1v11.7h-3.8v-10c0-2.8-1.1-3.8-3.2-3.8
			c-1.9,0-3.4,1.3-4.2,2.1v11.7h-3.8L51.5,124L51.5,124z"/>
		<path id="XMLID_84_" class="st0" d="M94.4,132.1c-2.1,0-4,0.4-5.9,0.9c-2.3,0.6-3.4,1.3-3.4,2.8s0.9,2.3,2.8,2.3
			c2.8,0,5.1-1.3,6.6-2.1L94.4,132.1L94.4,132.1z M98.2,137.6c0,1.1,0,2.1,0.2,2.5h-3.8c-0.2-0.6-0.2-1.1-0.2-1.7
			c-1.5,0.9-3.8,2.1-7.2,2.1c-2.1,0-6.4-0.9-6.4-4.9c0-5.5,8.3-6.4,13.4-6.6v-0.6c0-1.3-1.1-2.1-4.2-2.1c-3.4,0-4.2,1.3-4.5,2.1
			h-3.8c0.9-4.5,5.3-5.1,8.3-5.1c7.9,0,8.1,3.8,8.1,6.2L98.2,137.6L98.2,137.6L98.2,137.6z"/>
	</g>
	<path id="XMLID_7_" class="st1" d="M272.5,20.3c0,0.4,0,1.1,0.2,1.3c0.4,0.4,0.9-0.2,1.3-0.4s0.9-0.2,1.3-0.4
		c0.9-0.2,1.5,0,2.3,0.6c0.4,0.2,0.9,0.6,1.3,1.1c0.2,0.2,0.4,0.4,0.9,0.6c0.6,0.4,1.3,1.1,2.1,1.7c1.7,1.1,4,1.3,6,1.1
		c0.9,0,1.1-0.2,1.5,0.4c0.2,0.4,0.6,1.1,1.1,1.3c0.2,0,0.4-0.2,0.4-0.2s1.5,1.7,1.9,1.7s0-0.4,0-0.4s0.9,0.9,1.3,0.6
		c0.4-0.2,0.2-0.6,0.2-0.6c0.4,0.4,1.7,1.7,2.3,1.1c0.2,0.2,0.4,0.4,0.9,0.4c0,0,0.9,0,0.6-0.2c0.2,0.2,2.3,1.3,2.1,0.4
		c0-0.4-0.9-0.9-1.3-1.1c-0.6-0.4-1.3-0.6-1.9-1.1c-0.4-0.2-0.6-0.6-1.1-0.9c-1.1-0.9-1.9-1.5-3-2.3c-0.4-0.4-0.6-0.9-1.1-1.3
		c-0.4-0.4-0.9-0.9-1.3-1.3s-0.6-0.9-1.1-1.1c-0.2-0.2-1.1-0.6-1.1-1.1c0.6,0,1.5,0.2,2.3,0.2c0.4,0,0.2-0.9,0.2-0.9s0.4,0,1.1,0
		c0.4,0,0.2-1.5,0.2-1.5c0.2,0,0.6,0,0.4-0.4s-0.4-1.9-0.4-1.9c0.6-0.2,0.2-1.1,0.2-1.1c0.2-0.2,0.4-0.4,0.4-0.9
		c0-0.4,0.2-1.1,0.2-1.1c0.9-0.4,0.2-1.3,0.2-1.3c0.9-0.4,1.3-1.3,1.3-1.3c0.4-0.2,1.1-1.3,1.1-1.3c0.9-0.2,1.3-1.1,1.3-1.1
		c0.9-0.2,1.5-1.1,1.5-1.1s0.9-0.4,1.3-0.6c0.2-0.2,0.2-0.6,0.2-0.6c0.6,0,1.3-0.6,1.7-0.9c0.2-0.2,2.3-1.1,1.9-1.5c0,0-0.6,0-0.9,0
		c0.2-0.4,1.1-0.6,1.3-0.9c0.2-0.2,1.1-0.6,0.6-0.9c-0.4-0.4-1.9,0.4-2.3,0.6C301,2.1,300,2.6,298.7,3c-1.9,0.9-4.2,1.7-6.2,3
		c0.9-0.6,0.4-1.9,0.4-1.9c0.4-0.2,0.4-0.9,0.4-0.9c0.9-0.2,1.1-1.3,1.1-1.5S294,1.5,294,1.5c1.5-0.6,1.5-1.9,1.1-1.7
		s-0.9,0.4-0.9,0.4c0.2-0.9,0.9-1.1-2.3-0.4c-1.7,0.4-3.2,1.1-4.7,1.9s-3,1.5-4.2,2.5c-0.4,0.4-0.9,0.6-1.3,0.9
		c-0.9,0.6-1.3,1.3-1.9,2.1c-0.6,1.1-0.9,1.9-0.6,3.2c0.2,1.3,0,3.8,0,4.2c0,0.6-0.4,0.6-0.4,0.6s-2.5,0-4,0.2s-2.8,2.3-3,2.8
		c-0.2,0.4,0.4,0.9,0.4,1.3C272.7,19.7,272.5,20.3,272.5,20.3L272.5,20.3z"/>
	<g id="XMLID_5_">
		<path id="XMLID_9_" class="st2" d="M308.2,44.6c-0.4,0.2-1.1,0.6-1.5,0.9c-0.6,0.4-1.3,0.9-2.1,1.1c-0.4,0.2-2.1,0.9-2.8,1.1
			c-1.5,0.4-3.4,0.6-5.1,0.6c-0.9,0-1.5,0-2.3,0c-1.9-0.2-3.6-0.4-6.2-1.1c-1.9-0.4-7.2-1.7-9.1-1.9c-2.8-0.4-4.2-0.4-7.4-0.4
			c-6.2,0-10.6,1.1-16.1,3.6c-1.5,0.6-2.8,1.5-4.2,1.7c-1.7,0.2-2.8-0.6-4.2-1.3c-6.2-2.5-18.1,1.9-23,5.7
			c-14.9,11.5-31.7,11.9-47.8,2.5c0,0-3.2,1.5,2.8,6.8c0,0-5.3,2.8-5.1,8.1c0,0,0.4,2.5-1.9,5.3c-2.3,2.8,4,6,6.4,4.9
			c2.3-1.1,2.1-2.8,7-2.5c3.2,0.2,5.5-0.9,8.7,0.9c1.9,1.1,3.4,2.8,4.9,4.5c1.5,1.5,3.8,3.4,5.3,5.5c0.6,0.9,0.9,1.7,0.9,2.8
			c0,2.8-3.8,7.9-6.4,8.9c-3.2,1.5-4.2,2.1-3,3c1.3,1.1,2.8,1.3,5.3,0.4c3.8-1.3,5.3-4.7,7.4-7.9s2.8-7,3.8-10.8
			c0.9-2.8,2.8-5.5,5.5-2.5c3.2,3.4,5.3,6,10,7.6c2.5,0.9,5.3,1.3,7.9,0.2c1.3-0.6,1.5-1.9,0.4-3c-1.5-1.3-2.8-0.6-4.2-0.9
			c-0.4,0-0.9-0.2-1.3-0.2c-1.9-0.6-8.3-4.2-6-6.6c1.3-1.3,4.9-1.3,6.6-1.9c2.3-0.9,4.9-2.5,7.2-0.4c1.3,1.5,1.7,2.8,3.8,3.6
			c1.9,0.9,5.5,1.5,5.7,4c0,1.7-2.8,3.4-4.2,3.8c-1.9,0.9-3.8,1.5-5.3,3c-1.9,2.1,0,3.4,2.3,3.4c2.8,0,5.9-2.8,8.3-4
			c2.1-1.3,4-2.3,6-3.8c0.9-0.6,2.5-1.9,2.3-3c-0.2-2.1-5.5-6.6-0.2-5.1c3.8,1.1,3.2,4.5,1.7,7.2c-0.9,1.9-2.1,3.6-2.1,5.7
			c-0.2,3,2.1,2.8,4,1.3c2.1-1.7,3-5.9,3.8-8.3c0.9-2.1,1.7-4.5,2.1-6.6c0.2-1.1,0.9-3,0-3.8c-2.1-2.1-5.3-0.9-7.6-1.9
			c-3.8-1.7-1.5-5.1-1.3-8.3c0.2-5.7-0.2-9.4,4.9-13c4.9-3.4,11.3-4.7,17-4.5c2.6,0.2,6.2,1.1,8.9,1.5c2.3,0.2,4,0.6,6.2,0.4
			c3.8-0.2,8.1-1.5,11.5-3.6c0.9-0.6,1.7-1.3,2.6-1.9c0.4-0.4,0.9-0.9,1.1-1.3C309.9,43.3,308.6,44.4,308.2,44.6L308.2,44.6z"/>
		<path id="XMLID_8_" class="st2" d="M304.3,79.2c0,0-1.1,0.6-1.9,1.5c-1.1,0.9-3.2,2.3-4,3.6c-0.9,1.3-2.5,2.8-2.5,3.4
			c-0.2,0.6,0.2,1.9,0.9,2.3c0.6,0.4,1.3,1.1,2.1,1.1c0.9,0,4.2,0,5.7,0.2c3.2,0.9,7,5.1,2.8,7.4c-1.3,0.6-2.5,1.5-3.8,2.1
			c-1.1,0.4-2.6,0.9-3.2,1.1c-0.9,0.4-3.6,1.1-3.6,2.3c0,4.9,12.3-1.9,13.8-2.8c1.7-0.9,3.4-1.3,4.9-2.3c1.1-0.9,1.7-2.3,3-3
			c0.9-0.4,1.7-0.2,2.8-0.4c2.1-0.2,4.2-0.6,6.4-1.1c4.7-0.9,9.8-1.7,14.2-3.6c6.4-3,9.6-0.9,10.6-0.6c1.1,0.2,4.9,1.9,9.4,1.5
			c4.5-0.6,7.6-1.3,9.1-0.2c1.9,1.1,3,3.4,4.2,5.1c0.9,1.1,2.1,5.1,3.4,5.3c3,0.4,1.5-6.4,0.6-7.4c-1.1-1.3-5.7-6-6.8-7
			c-1.3-1.1-1.1-1.5-2.5-1.5c-1.5,0.2-5.3,0.4-6.4-0.6c-1.3-1.1-3.8-3.6-3.8-4.2s2.1-2.5,2.8-3.6s1.3-2.1,0.9-2.8s-1.1-0.9-1.9-0.6
			c-0.9,0.2-4,2.3-4.2,2.5c0,0-0.9-2.1-3.4-2.3c-2.5-0.2-11,1.7-13.6,2.5c-2.5,0.6-18.1,5.1-19.1,5.1c-1.3,0.2-6,1.3-7.9,0.9
			s-3.6-2.1-4-3.4c0,0,1.7-2.1,1.7-3.2s-1.1-6.2-1.9-7.4c-0.9-1.3-1.9-1.3-2.8-0.4s-2.5,2.8-2.5,4.5c0,1.5,0.6,3.4,1.1,4.2
			C304.6,78.6,304.3,79.2,304.3,79.2"/>
		<path id="XMLID_6_" class="st2" d="M185.3,35c-0.6-1.1-2.8,0.6-10.4,1.5c-9.6,0.9-18.3-1.3-28-4.7S129.2,32,129.2,32
			c-6.6-7-26.8-9.4-37.2-6.4S69.5,28,58.3,26.9c-11.3-1.1-13-8.7-14.7-10c3.6-2.1,6.4-6.8,6.8-10.2c0.2-1.9-0.2-6-3.2-5.3
			c-2.3,0.4-3.4,4.5-6.2,5.5c-4.8,1.8-10.1-0.6-15-0.6c-7,0-9.1,3-11.3,5.7c-1.5,2.1-5.5,2.5-7.9,2.5c-1.7,0-5.1-0.6-6.6,0.9
			c-0.8,1.1,0.6,3.8,1.1,4.9c0.2,1.5,0.4,2.8,1.1,4c0.8,1.3,2.1,1.9,3.2,2.8s1.9,2.3,3.2,2.8s3,0.9,4.2,0.9c2.3,0,4.5,0.2,6.8,0
			c1.9,0,3.6,0.9,5.7,1.5c1.7,0.4,3.4,1.3,4.9,2.1c3.8,2.3,5.3,6.8,7,10.6c1.7,3.6,3.4,7.2,5.1,10.8c2.1,4.2,5.7,6.4,8.1,9.8
			c2.1,3,0.6,7.4-0.4,10.4c-1.5,3.8-4,7.9-0.6,11.3c4,4.2,10,5.5,14.4,9.1c1.5,1.3,3.2,2.3,5.3,2.3c4.2-0.2,4-4.5,1.3-6.6
			c-4-3.2-14.7-4.7-11.9-11.9c0.9-2.1,2.3-5.7,4.5-6.8c3.2-1.7,6.6,7,7.9,8.9c5.7,8.3,11.3,15.7,19.1,22.1c1.5,1.3,3,3,5.1,3.4
			c2.3,0.4,5.1-0.2,5.3-3c0.2-3.2-3.4-4.7-5.5-6.2c-3.4-2.3-5.7-5.7-8.5-8.7c-4-4.2-8.3-10-9.6-15.7c-1.9-8.9,4.7-5.7,9.8-8.7
			c2.3-1.3,4-3.4,5.7-5.5c1.1-1.3,3.2-4.9,3.6-1.3c0.4,4.5,5.9,8.9,9.4,11.9c3.4,3,4.9,3,4.7,4.9c-0.2,1.9-3.8,3.4-8.3,5.5
			s-4.5,5.1-4.9,9.4c-0.4,4.2,6.2,8.7,6.6,1.3s6.2-8.7,10.2-10s5.7-1.3,7-4.5s8.9-6.6,8.5-2.1c-0.4,4.5-9.4,8.7-9.4,18.1
			c0,3.2,0.9,7,4.7,6.8c5.5-0.2,2.6-8.3,3-11.9c0.2-2.1,13.2-13.8,14.2-18.7c1.1-4.7-12.3-5.3-14.9-5.3s-1.9-0.9-1.9-0.9
			c15.1-10,7.4-22.5,7.4-24.9c0,0,5.1-4.9,15.9-1.9c10.8,3,23.4,4,30.8,2.1C186.2,36.9,186,36.1,185.3,35L185.3,35z"/>
	</g>
</g>
</svg>
